<mxfile host="app.diagrams.net" modified="2024-05-02T14:59:13.708Z" agent="Mozilla/5.0 (Windows NT 10.0; Win64; x64) AppleWebKit/537.36 (KHTML, like Gecko) Chrome/124.0.0.0 Safari/537.36" etag="gIGnuGdDmdnXj8y1WPfy" version="24.3.1" type="onedrive">
  <diagram name="Página-1" id="MITVrKA2FWe7i7EPJD-f">
    <mxGraphModel grid="1" page="1" gridSize="10" guides="1" tooltips="1" connect="1" arrows="1" fold="1" pageScale="1" pageWidth="827" pageHeight="1169" math="0" shadow="0">
      <root>
        <mxCell id="0" />
        <mxCell id="1" parent="0" />
        <mxCell id="-Q8si0EqM3lwfwsSI06j-1" value="" style="swimlane;startSize=0;fillColor=#dae8fc;strokeColor=#6c8ebf;" vertex="1" parent="1">
          <mxGeometry x="193" y="90" width="470" height="1030" as="geometry" />
        </mxCell>
        <mxCell id="-Q8si0EqM3lwfwsSI06j-2" value="Verificar Conta" style="ellipse;whiteSpace=wrap;html=1;" vertex="1" parent="-Q8si0EqM3lwfwsSI06j-1">
          <mxGeometry x="160" y="50" width="150" height="80" as="geometry" />
        </mxCell>
        <mxCell id="-Q8si0EqM3lwfwsSI06j-3" value="Realizar Saque" style="ellipse;whiteSpace=wrap;html=1;" vertex="1" parent="-Q8si0EqM3lwfwsSI06j-1">
          <mxGeometry x="160" y="390" width="150" height="80" as="geometry" />
        </mxCell>
        <mxCell id="-Q8si0EqM3lwfwsSI06j-4" value="Registrar a Movimentação" style="ellipse;whiteSpace=wrap;html=1;" vertex="1" parent="-Q8si0EqM3lwfwsSI06j-1">
          <mxGeometry x="160" y="550" width="150" height="80" as="geometry" />
        </mxCell>
        <mxCell id="-Q8si0EqM3lwfwsSI06j-5" value="" style="endArrow=classic;html=1;rounded=0;exitX=0.5;exitY=1;exitDx=0;exitDy=0;entryX=0.5;entryY=0;entryDx=0;entryDy=0;dashed=1;dashPattern=8 8;" edge="1" parent="-Q8si0EqM3lwfwsSI06j-1" source="-Q8si0EqM3lwfwsSI06j-3" target="-Q8si0EqM3lwfwsSI06j-4">
          <mxGeometry width="50" height="50" relative="1" as="geometry">
            <mxPoint x="96" y="550" as="sourcePoint" />
            <mxPoint x="146" y="500" as="targetPoint" />
          </mxGeometry>
        </mxCell>
        <mxCell id="-Q8si0EqM3lwfwsSI06j-6" value="&amp;lt;&amp;lt;Include&amp;gt;&amp;gt;" style="edgeLabel;html=1;align=center;verticalAlign=middle;resizable=0;points=[];" connectable="0" vertex="1" parent="-Q8si0EqM3lwfwsSI06j-5">
          <mxGeometry x="-0.0634" relative="1" as="geometry">
            <mxPoint as="offset" />
          </mxGeometry>
        </mxCell>
        <mxCell id="-Q8si0EqM3lwfwsSI06j-7" value="Realizar Pagamento" style="ellipse;whiteSpace=wrap;html=1;" vertex="1" parent="-Q8si0EqM3lwfwsSI06j-1">
          <mxGeometry x="160" y="710" width="150" height="80" as="geometry" />
        </mxCell>
        <mxCell id="-Q8si0EqM3lwfwsSI06j-8" value="" style="endArrow=classic;html=1;rounded=0;exitX=0.5;exitY=0;exitDx=0;exitDy=0;entryX=0.5;entryY=1;entryDx=0;entryDy=0;dashed=1;dashPattern=12 12;" edge="1" parent="-Q8si0EqM3lwfwsSI06j-1" source="-Q8si0EqM3lwfwsSI06j-7" target="-Q8si0EqM3lwfwsSI06j-4">
          <mxGeometry width="50" height="50" relative="1" as="geometry">
            <mxPoint x="66" y="690" as="sourcePoint" />
            <mxPoint x="116" y="640" as="targetPoint" />
          </mxGeometry>
        </mxCell>
        <mxCell id="-Q8si0EqM3lwfwsSI06j-9" value="&amp;lt;&amp;lt;Include&amp;gt;&amp;gt;" style="edgeLabel;html=1;align=center;verticalAlign=middle;resizable=0;points=[];" connectable="0" vertex="1" parent="-Q8si0EqM3lwfwsSI06j-8">
          <mxGeometry x="-0.0741" relative="1" as="geometry">
            <mxPoint as="offset" />
          </mxGeometry>
        </mxCell>
        <mxCell id="-Q8si0EqM3lwfwsSI06j-10" value="Imprimir Comprovante" style="ellipse;whiteSpace=wrap;html=1;" vertex="1" parent="-Q8si0EqM3lwfwsSI06j-1">
          <mxGeometry x="160" y="890" width="150" height="80" as="geometry" />
        </mxCell>
        <mxCell id="-Q8si0EqM3lwfwsSI06j-11" value="" style="endArrow=classic;html=1;rounded=0;exitX=0.5;exitY=1;exitDx=0;exitDy=0;entryX=0.5;entryY=0;entryDx=0;entryDy=0;dashed=1;dashPattern=12 12;" edge="1" parent="-Q8si0EqM3lwfwsSI06j-1" source="-Q8si0EqM3lwfwsSI06j-7" target="-Q8si0EqM3lwfwsSI06j-10">
          <mxGeometry width="50" height="50" relative="1" as="geometry">
            <mxPoint x="121" y="880" as="sourcePoint" />
            <mxPoint x="171" y="830" as="targetPoint" />
          </mxGeometry>
        </mxCell>
        <mxCell id="-Q8si0EqM3lwfwsSI06j-12" value="&amp;lt;&amp;lt;Extend&amp;gt;&amp;gt;" style="edgeLabel;html=1;align=center;verticalAlign=middle;resizable=0;points=[];" connectable="0" vertex="1" parent="-Q8si0EqM3lwfwsSI06j-11">
          <mxGeometry x="0.0619" relative="1" as="geometry">
            <mxPoint y="-3" as="offset" />
          </mxGeometry>
        </mxCell>
        <mxCell id="-Q8si0EqM3lwfwsSI06j-13" value="Cliente" style="shape=umlActor;verticalLabelPosition=bottom;verticalAlign=top;html=1;outlineConnect=0;" vertex="1" parent="1">
          <mxGeometry x="64" y="519" width="40" height="75" as="geometry" />
        </mxCell>
        <mxCell id="-Q8si0EqM3lwfwsSI06j-14" value="" style="endArrow=classic;html=1;rounded=0;entryX=0;entryY=0.5;entryDx=0;entryDy=0;strokeWidth=0.5;" edge="1" parent="1" source="-Q8si0EqM3lwfwsSI06j-13" target="-Q8si0EqM3lwfwsSI06j-3">
          <mxGeometry width="50" height="50" relative="1" as="geometry">
            <mxPoint x="144" y="560" as="sourcePoint" />
            <mxPoint x="394" y="340" as="targetPoint" />
          </mxGeometry>
        </mxCell>
        <mxCell id="-Q8si0EqM3lwfwsSI06j-15" value="" style="endArrow=classic;html=1;rounded=0;entryX=0;entryY=0.5;entryDx=0;entryDy=0;strokeWidth=0.5;" edge="1" parent="1" source="-Q8si0EqM3lwfwsSI06j-13" target="-Q8si0EqM3lwfwsSI06j-7">
          <mxGeometry width="50" height="50" relative="1" as="geometry">
            <mxPoint x="144" y="560" as="sourcePoint" />
            <mxPoint x="364" y="740" as="targetPoint" />
          </mxGeometry>
        </mxCell>
        <mxCell id="-Q8si0EqM3lwfwsSI06j-16" value="" style="endArrow=classic;html=1;rounded=0;entryX=0;entryY=0.5;entryDx=0;entryDy=0;strokeWidth=0.5;" edge="1" parent="1" source="-Q8si0EqM3lwfwsSI06j-13" target="-Q8si0EqM3lwfwsSI06j-2">
          <mxGeometry width="50" height="50" relative="1" as="geometry">
            <mxPoint x="144" y="560" as="sourcePoint" />
            <mxPoint x="364" y="320" as="targetPoint" />
          </mxGeometry>
        </mxCell>
        <mxCell id="-Q8si0EqM3lwfwsSI06j-17" value="Banco" style="shape=umlActor;verticalLabelPosition=bottom;verticalAlign=top;html=1;outlineConnect=0;" vertex="1" parent="1">
          <mxGeometry x="724" y="380" width="40" height="80" as="geometry" />
        </mxCell>
        <mxCell id="-Q8si0EqM3lwfwsSI06j-18" value="" style="endArrow=classic;html=1;rounded=0;entryX=1;entryY=0.5;entryDx=0;entryDy=0;strokeWidth=0.5;" edge="1" parent="1" source="-Q8si0EqM3lwfwsSI06j-17" target="-Q8si0EqM3lwfwsSI06j-2">
          <mxGeometry width="50" height="50" relative="1" as="geometry">
            <mxPoint x="724" y="270" as="sourcePoint" />
            <mxPoint x="364" y="410" as="targetPoint" />
          </mxGeometry>
        </mxCell>
        <mxCell id="-Q8si0EqM3lwfwsSI06j-19" value="Gerente" style="shape=umlActor;verticalLabelPosition=bottom;verticalAlign=top;html=1;outlineConnect=0;" vertex="1" parent="1">
          <mxGeometry x="724" y="640" width="40" height="80" as="geometry" />
        </mxCell>
        <mxCell id="-Q8si0EqM3lwfwsSI06j-20" value="" style="endArrow=classic;html=1;rounded=0;entryX=1;entryY=0.5;entryDx=0;entryDy=0;strokeWidth=0.5;" edge="1" parent="1" source="-Q8si0EqM3lwfwsSI06j-19" target="-Q8si0EqM3lwfwsSI06j-4">
          <mxGeometry width="50" height="50" relative="1" as="geometry">
            <mxPoint x="724" y="560" as="sourcePoint" />
            <mxPoint x="734" y="560" as="targetPoint" />
          </mxGeometry>
        </mxCell>
        <mxCell id="-Q8si0EqM3lwfwsSI06j-21" value="" style="endArrow=classic;html=1;rounded=0;strokeWidth=0.5;" edge="1" parent="1" source="-Q8si0EqM3lwfwsSI06j-17" target="-Q8si0EqM3lwfwsSI06j-19">
          <mxGeometry width="50" height="50" relative="1" as="geometry">
            <mxPoint x="744" y="480" as="sourcePoint" />
            <mxPoint x="604" y="600" as="targetPoint" />
          </mxGeometry>
        </mxCell>
      </root>
    </mxGraphModel>
  </diagram>
</mxfile>
